<svg width='200' height='200' fill="#000000" xmlns="http://www.w3.org/2000/svg" xmlns:xlink="http://www.w3.org/1999/xlink" version="1.1" x="0px" y="0px" viewBox="0 0 16 16" enable-background="new 0 0 16 16" xml:space="preserve"><path fill-rule="evenodd" clip-rule="evenodd" d="M16,9V7h-1.61c-0.13-0.97-0.48-1.87-0.99-2.65l1.02-1.11l-1.63-1.63l-1.18,0.96  C10.85,2.01,9.97,1.59,9,1.4V0H7v1.35C6.02,1.5,5.11,1.86,4.33,2.39l-1.09-1L1.61,3.02l0.98,1.37C2.04,5.16,1.65,6.04,1.46,7H0v2  h1.44c0.16,0.95,0.51,1.83,1.03,2.6l-1.08,0.97l1.63,1.63l1.45-1.05c0.75,0.53,1.6,0.92,2.53,1.11V16h2v-1.51  c0.94-0.14,1.81-0.67,2.58-1.17l0.99,1.09l1.63-1.62l-1.04-1.25c0.55-0.75,0.96-1.6,1.16-2.54H16z M7.91,9.97  c-1.19,0-2.15-0.96-2.15-2.14c0-1.19,0.96-2.15,2.15-2.15c1.18,0,2.14,0.96,2.14,2.15C10.05,9.01,9.09,9.97,7.91,9.97z"/></svg>